<svg width="24" height="24" viewBox="0 0 24 24" fill="none" xmlns="http://www.w3.org/2000/svg">
<path d="M23 22.9999L20.8 20.7999M11.45 21.8999C12.8223 21.8999 14.1812 21.6296 15.449 21.1044C16.7169 20.5793 17.8689 19.8095 18.8393 18.8391C19.8096 17.8688 20.5794 16.7168 21.1045 15.4489C21.6297 14.1811 21.9 12.8222 21.9 11.4499C21.9 10.0776 21.6297 8.71869 21.1045 7.45084C20.5794 6.18298 19.8096 5.03098 18.8393 4.06061C17.8689 3.09024 16.7169 2.3205 15.449 1.79534C14.1812 1.27018 12.8223 0.999878 11.45 0.999878C8.67849 0.999878 6.02049 2.10086 4.06073 4.06061C2.10098 6.02037 1 8.67837 1 11.4499C1 14.2214 2.10098 16.8794 4.06073 18.8391C6.02049 20.7989 8.67849 21.8999 11.45 21.8999Z" stroke="white" stroke-width="1.5" stroke-linecap="round" stroke-linejoin="round"/>
</svg>
